<svg id="Layer_1" data-name="Layer 1" xmlns="http://www.w3.org/2000/svg" xmlns:xlink="http://www.w3.org/1999/xlink" viewBox="0 0 1366 768">
  <defs>
    <style>
      .cls-1 {
        fill: url(#radial-gradient);
      }
    </style>
    <radialGradient id="radial-gradient" cx="447.5" cy="245.5" r="116.93" gradientUnits="userSpaceOnUse">
      <stop offset="0" stop-color="lime"/>
      <stop offset="0.12" stop-color="#3bc400"/>
      <stop offset="0.24" stop-color="#6e9100"/>
      <stop offset="0.37" stop-color="#9b6400"/>
      <stop offset="0.49" stop-color="#bf4000"/>
      <stop offset="0.62" stop-color="#db2400"/>
      <stop offset="0.74" stop-color="#ef1000"/>
      <stop offset="0.87" stop-color="#fb0400"/>
      <stop offset="0.99" stop-color="red"/>
    </radialGradient>
  </defs>
  <title>aim</title>
  <g>
    <rect class="cls-1" x="282.5" y="234.5" width="330" height="22" rx="9.5" ry="9.5"/>
    <path d="M603,235a9,9,0,0,1,9,9v3a9,9,0,0,1-9,9H292a9,9,0,0,1-9-9v-3a9,9,0,0,1,9-9H603m0-1H292a10,10,0,0,0-10,10v3a10,10,0,0,0,10,10H603a10,10,0,0,0,10-10v-3a10,10,0,0,0-10-10Z"/>
  </g>
</svg>
