<svg id="Layer_2" data-name="Layer 2" xmlns="http://www.w3.org/2000/svg" viewBox="0 0 1366 768">
  <defs>
    <style>
      .cls-1 {
        stroke: #000;
        stroke-miterlimit: 10;
        stroke-width: 10px;
      }

      .cls-2 {
        fill: #fff;
      }
    </style>
  </defs>
  <title>fodbold</title>
  <circle class="cls-1" cx="671.4" cy="388.81" r="224.69"/>
  <path class="cls-2" d="M553.86,197.28,587,219.5s50-16,113-5l41-33S664.72,140.06,553.86,197.28Z"/>
  <path class="cls-2" d="M598,231.5l-39,79,64,81s76-11,90-7l48-96-51-62S651,214.5,598,231.5Z"/>
  <path class="cls-2" d="M609,398.5s-14,55-20,86l-68,19-54-68s7-75,22-98l57-18Z"/>
  <path class="cls-2" d="M523,517.5l74-19s55,37,80,45l5,50s-28.06,9-30,14c0,0-67-2-129-54.5Z"/>
  <path class="cls-2" d="M692,544.5l6,47,43,5s49-7.67,102-70.33V480.83H769.33S715.66,538.5,692,544.5Z"/>
  <path class="cls-2" d="M765.66,465.83h82.67s33.33-64.05,33.33-77S841,302.17,827.33,295.17H773.66l-45,92S749.33,409.17,765.66,465.83Z"/>
  <path class="cls-2" d="M455.49,428s-9.5-50.5,0-82.5S467,305,474,293l4.5,33s-11.22,25-13.61,43C464.88,369,454.55,401.59,455.49,428Z"/>
  <path class="cls-2" d="M843,252s50.7,61.33,48,128.5c0,0-24.5-70.5-48-88.5Z"/>
</svg>
