<svg id="Layer_2" data-name="Layer 2" xmlns="http://www.w3.org/2000/svg" viewBox="0 0 1366 768">
  <defs>
    <style>
      .cls-1, .cls-3 {
        stroke: #000;
        stroke-miterlimit: 10;
      }

      .cls-2 {
        fill: #2e0100;
      }

      .cls-3 {
        fill: none;
      }

      .cls-4 {
        fill: #fff;
      }
    </style>
  </defs>
  <title>keeper</title>
  <path class="cls-1" d="M237.24,312.5s-30.56-9.18-24.56,30.82c0,0-27.66,22.38-37,25.5,0,0-8.5,0-23-4.5,0,0-10.75.37-2.5,7.25l9.75,3s5.38,1.12-4.5,6.5-12.5,9-12.5,9-2.62,4.12,3.13,4.5c17.64-14.1-8.42,7.32,2.25,7.25,3-.68,7.78-5.07,12-8.25l-7.75,6.87s-1.88,2-1.38,3.25,2.13,2.38,4.38,2.63,10.87-10,10.87-10a57.16,57.16,0,0,0-4.5,6.25,5.28,5.28,0,0,0-.62,3.75s2.37,2.62,5.37,1,8.75-12,11-18.13c0,0,4.5-5.5,7-6.12s65-37.59,65-56.42L237.24,312.5"/>
  <path class="cls-1" d="M419.2,308.13s30.55-9.19,24.55,30.81c0,0,27.66,22.39,37,25.5,0,0,8.5,0,23-4.5,0,0,10.75.38,2.5,7.25l-9.75,3s-5.37,1.13,4.5,6.5,12.5,9,12.5,9,2.63,4.13-3.12,4.5c-17.64-14.1,8.41,7.33-2.25,7.25-3-.68-7.79-5.06-12-8.25l7.75,6.88s1.87,2,1.37,3.25-2.12,2.37-4.37,2.62-10.88-10-10.88-10a56.81,56.81,0,0,1,4.5,6.25,5.28,5.28,0,0,1,.63,3.76s-2.38,2.62-5.38,1-8.75-12-11-18.12c0,0-4.5-5.5-7-6.13s-65-37.58-65-56.41l12.45-14.15"/>
  <path class="cls-2" d="M250.67,285.67,243,267.34s-2.33-16.34,36.67-15S404,253.67,404,253.67s28.67-.33,14,23l-6.67,13.67L424.67,307c-2.56,10.27-9.67,24.67-13,24.34S399,314.67,398.67,309s-40.34,89-40.34,89L358,412.34c1.77,21.4-53.46,17.39-45-1.67l1.33-13.33s-57-80-50.66-81.67c0,0-18.67,21-15.67,21,0,0-19.67-19.33-19.33-26s0-2.67,0-2.67Z"/>
  <path d="M294.67,441.67v22.66S262,490,264.67,475.67,283,459,283,459l2.58-21.19Z"/>
  <path d="M371,437.8v22.66s32.67,25.67,30,11.34-18.33-16.67-18.33-16.67l-2.59-21.19Z"/>
  <path d="M292.33,298.33s24.67-1,26-4-7.66-29.66-10-28.33S289.3,298.49,292.33,298.33Z"/>
  <path d="M351.33,293.33s11.34-25.33,16-30,12.34,30,12.34,30S349.61,297.1,351.33,293.33Z"/>
  <path class="cls-3" d="M315.91,336.15s42.66-2,46.66-19"/>
  <path class="cls-4" d="M312.73,412.33s14,8.75,45,1.66c0,0,21.58,7.67,24.66,12.67s-10.59,18.48-16.66,13l-13.67-12.33s-15.5,7.58-37.67.33l-14.66,15.67S277,440,283.06,434,302.23,413,312.73,412.33Z"/>
</svg>
