<svg xmlns="http://www.w3.org/2000/svg" viewBox="0 0 1366 768">
  <defs>
    <style>
      .cls-1 {
        fill: #1e9b92;
      }

      .cls-2 {
        fill: none;
        stroke: #000;
        stroke-miterlimit: 10;
      }
    </style>
  </defs>
  <title>skytte</title>
  <g id="Layer_2" data-name="Layer 2">
    <ellipse class="cls-1" cx="682.76" cy="296.1" rx="100.75" ry="92.3"/>
    <path d="M637.82,378.72s-24.31,72.68-18.31,77.68,43-8,43-8,13-25-26-14c0,0,6.31-53.24,11.53-51.63S637.82,378.72,637.82,378.72Z"/>
    <path d="M704.48,386.24s-21,76.16-16,80.16,32,7,44,0,4-32-30-23l10.24-59.16Z"/>
    <path d="M701.51,356.4s19,76,49,90,12-29,7-24,21-27.61-10-4.27l-31-61.73Z"/>
    <path class="cls-2" d="M701.51,334.4s18-8,21,5,17-4,24,0,5.58,9.51,16.29,12.75"/>
    <path class="cls-2" d="M774.7,258.31s-18,18.42,7.89,50.25"/>
    <path class="cls-2" d="M712.75,279.4s35.49,13.46,58.13,9.23"/>
    <ellipse cx="778.93" cy="276.5" rx="2.75" ry="4.08"/>
  </g>
</svg>
